<svg width="18" height="18" viewBox="0 0 18 18" fill="none" xmlns="http://www.w3.org/2000/svg">
<path fill-rule="evenodd" clip-rule="evenodd" d="M12.6125 0.666626C15.4366 0.666626 17.3333 2.64829 17.3333 5.59663V12.4033C17.3333 15.3516 15.4366 17.3333 12.6125 17.3333H5.38829C2.56413 17.3333 0.666626 15.3516 0.666626 12.4033V5.59663C0.666626 2.64829 2.56413 0.666626 5.38829 0.666626H12.6125ZM12.6125 1.91663H5.38829C3.27996 1.91663 1.91663 3.36079 1.91663 5.59663V12.4033C1.91663 14.6391 3.27996 16.0833 5.38829 16.0833H12.6125C14.7208 16.0833 16.0833 14.6391 16.0833 12.4033V5.59663C16.0833 3.36079 14.7208 1.91663 12.6125 1.91663ZM8.99996 4.96988C9.34496 4.96988 9.62496 5.24988 9.62496 5.59488V10.8916L11.6808 8.82738C11.925 8.58154 12.32 8.58321 12.5641 8.82571C12.8083 9.06904 12.81 9.46488 12.5658 9.70988L9.44246 12.8465C9.42204 12.8665 9.40092 12.885 9.37863 12.902L9.44246 12.8465C9.40965 12.8798 9.37342 12.9089 9.3346 12.9336C9.32513 12.9388 9.31589 12.9443 9.30651 12.9496C9.28872 12.9605 9.26982 12.9699 9.25048 12.9784C9.24505 12.98 9.24004 12.9821 9.23501 12.9841C9.21565 12.9928 9.19543 12.9998 9.17488 13.0058C9.16213 13.0087 9.14945 13.012 9.13663 13.0149C9.12098 13.0191 9.10524 13.022 9.08939 13.0243C9.07662 13.0254 9.0633 13.0268 9.04986 13.0279C9.03307 13.0301 9.01654 13.0307 8.99996 13.0307L8.95079 13.0266L8.91519 13.0242C8.91349 13.0239 8.9118 13.0237 8.9101 13.0235L8.99996 13.0307C8.9537 13.0307 8.9079 13.0256 8.86336 13.0156C8.85047 13.012 8.83779 13.0087 8.82527 13.0051C8.80449 12.9998 8.78427 12.9928 8.76446 12.9847C8.75988 12.9821 8.75487 12.98 8.7499 12.9778C8.7301 12.9699 8.7112 12.9605 8.6928 12.9501C8.68403 12.9443 8.67479 12.9388 8.66571 12.933C8.65008 12.9239 8.63523 12.9136 8.62084 12.9025C8.59664 12.8832 8.57343 12.8626 8.55184 12.8404L5.43413 9.70988C5.18996 9.46488 5.19163 9.06904 5.43579 8.82571C5.68079 8.58321 6.07579 8.58154 6.31913 8.82738L8.37496 10.8916V5.59488C8.37496 5.24988 8.65496 4.96988 8.99996 4.96988Z" fill="white"/>
</svg>
