<svg width="222" height="40" viewBox="0 0 222 40" fill="none" xmlns="http://www.w3.org/2000/svg">
<path fill-rule="evenodd" clip-rule="evenodd" d="M18.2351 0.0785633C17.9003 0.228454 17.7694 0.453068 17.7694 0.878421C17.7694 1.77821 19.0564 1.93495 19.3388 1.06943C19.5648 0.377019 18.9008 -0.219228 18.2351 0.0785633ZM20.1302 0.710624C20.2034 1.82463 21.3482 2.10054 21.3558 1.00598C21.3569 0.839512 21.3921 0.5541 21.4338 0.371711C21.5064 0.0560126 21.4996 0.040095 21.29 0.040095C21.108 0.040095 21.0881 0.0622033 21.1748 0.168099C21.4043 0.447541 21.1768 1.39044 20.8553 1.49191C20.4259 1.62743 20.1859 1.03185 20.3859 0.326834C20.46 0.0659621 20.4499 0.040095 20.2766 0.040095C20.0937 0.040095 20.0878 0.0668465 20.1302 0.710624ZM18.9161 0.295883C19.1843 0.515634 19.2066 1.14305 18.9526 1.33097C18.5109 1.65772 18.0316 1.37275 18.0316 0.783137C18.0316 0.195734 18.4873 -0.0551883 18.9161 0.295883ZM22.2499 0.719468C22.2372 1.06391 22.173 1.39398 22.0949 1.51446C21.9662 1.71299 21.9702 1.72029 22.2062 1.72029C22.4392 1.72029 22.4494 1.70304 22.4177 1.36656C22.3745 0.90893 22.5209 0.907603 22.7508 1.36369C22.9038 1.667 23.1475 1.89715 23.3153 1.89715C23.3429 1.89715 23.2443 1.72802 23.0963 1.52154C22.8291 1.14814 22.8286 1.14526 23.0085 1.02433C23.4316 0.740248 23.2043 0.297652 22.5775 0.185344L22.2715 0.130517L22.2499 0.719468ZM16.8292 0.275764C16.7686 0.300304 16.7387 0.352258 16.7625 0.391167C16.7861 0.430077 16.7605 0.592789 16.7055 0.752628L16.6054 1.04312L16.4058 0.789991C16.2961 0.650713 16.226 0.50458 16.2498 0.465228C16.2994 0.384093 16.0968 0.369943 15.9121 0.441572C15.8238 0.475839 15.8988 0.600749 16.177 0.88196C16.5166 1.22574 16.5606 1.3135 16.5291 1.58587C16.4956 1.87637 16.5094 1.89715 16.7378 1.89715C16.8724 1.89715 16.9826 1.85735 16.9826 1.80872C16.9826 1.76008 16.9463 1.72029 16.9022 1.72029C16.6174 1.72029 16.8112 0.598538 17.143 0.327496C17.2883 0.208778 17.0781 0.174068 16.8292 0.275764ZM22.8695 0.436487C23.0574 0.626614 22.953 0.924405 22.6984 0.924405C22.4851 0.924405 22.428 0.748649 22.5432 0.44533C22.6094 0.270679 22.703 0.268026 22.8695 0.436487ZM25.0749 0.75705C25.1553 0.888813 24.8542 1.91439 24.6964 2.04593C24.5637 2.15647 25.2655 2.42773 25.684 2.42773C26.2398 2.42773 26.5667 1.50186 26.1497 1.10878C25.8685 0.843933 24.9427 0.540837 25.0749 0.75705ZM13.8136 0.995373C13.4724 1.11984 13.2235 1.26221 13.2235 1.33274C13.2235 1.4687 13.3673 1.50053 13.413 1.37474C13.4289 1.33053 13.5164 1.28078 13.6071 1.2642C13.823 1.22463 14.2328 2.34063 14.0671 2.51727C13.9891 2.60039 14.0155 2.61012 14.1851 2.56038C14.4327 2.48765 14.6255 2.3393 14.4721 2.3393C14.4183 2.3393 14.2876 2.076 14.1816 1.75411C13.9777 1.13399 14.0265 0.961548 14.3818 1.04755C14.5302 1.08358 14.6054 0.88218 14.4692 0.813204C14.4332 0.795075 14.1381 0.876875 13.8136 0.995373ZM26.016 1.21225C26.3687 1.63473 25.9867 2.29774 25.4338 2.22279C24.9698 2.15979 24.9538 2.03333 25.2952 1.12514C25.3953 0.858525 25.7572 0.902298 26.016 1.21225ZM12.1585 2.41977C12.1432 2.91079 12.1504 3.30961 12.1744 3.30607C12.3095 3.28618 12.5504 3.14668 12.4586 3.14137C12.235 3.12877 12.3405 2.70209 12.6008 2.56591C12.8526 2.43437 13.2491 2.63776 13.0779 2.81064C12.9621 2.92803 13.2814 2.86679 13.4473 2.74012C13.6077 2.6172 13.6081 2.61012 13.4563 2.60747C13.368 2.60592 13.0462 2.36207 12.7411 2.06583L12.1865 1.52706L12.1585 2.41977ZM27.1275 1.87946C26.7636 2.24755 26.7595 2.69236 27.1166 3.0536C27.8592 3.80483 28.9841 2.77217 28.2817 1.98381C27.9156 1.57305 27.4702 1.53281 27.1275 1.87946ZM28.085 1.98558C28.4463 2.35102 28.1578 3.13673 27.6634 3.13386C27.0576 3.13032 26.8631 2.38241 27.3642 1.98359C27.6438 1.76118 27.8638 1.76185 28.085 1.98558ZM12.699 2.34262C12.699 2.37821 12.6203 2.42795 12.5241 2.45338C12.3775 2.49207 12.3493 2.45603 12.3493 2.22898C12.3493 1.96369 12.353 1.96148 12.5241 2.11822C12.6203 2.20621 12.699 2.30725 12.699 2.34262ZM17.5071 2.56878C5.85153 4.28213 -0.725791 17.0472 4.55857 27.6984C7.08372 32.7879 11.6945 36.1516 17.4853 37.1287C18.3564 37.2758 17.4833 36.5281 16.5702 36.3452C6.13892 34.2549 0.296594 22.3866 4.90432 12.6475C10.188 1.4802 25.243 -0.365582 32.8553 9.22056C40.6286 19.0094 35.8298 33.1323 23.6563 36.2933C23.2329 36.4032 22.762 37.0043 23.099 37.0043C23.4056 37.0043 25.2762 36.4808 26.0507 36.1781C37.3053 31.7813 40.8301 17.5954 32.9539 8.39683C29.155 3.96024 23.2353 1.7267 17.5071 2.56878ZM29.287 2.78853C28.8705 3.03393 28.7748 3.62398 29.0901 4.00313C29.6221 4.64249 30.5328 4.28854 30.5328 3.44226C30.5328 2.91543 29.76 2.50998 29.287 2.78853ZM9.28541 3.17719C9.02337 3.34609 8.85836 3.48537 8.91912 3.4867C9.04107 3.48913 9.66831 4.43224 9.66831 4.61309C9.66831 4.76298 9.73104 4.75679 9.99133 4.58081C10.7571 4.06282 10.8981 3.599 10.4328 3.12833C10.1006 2.79251 9.86698 2.80246 9.28541 3.17719ZM30.0913 2.95589C30.5699 3.21521 30.2052 4.19635 29.6304 4.19635C29.3699 4.19635 29.1063 3.88198 29.1148 3.58132C29.1299 3.04741 29.6477 2.7158 30.0913 2.95589ZM10.258 3.30519C10.5451 3.59569 10.5764 3.80063 10.3777 4.08758C10.0632 4.54168 9.92948 4.51338 9.55423 3.91315L9.20739 3.35803L9.48888 3.20615C9.87637 2.99701 9.96445 3.00828 10.258 3.30519ZM31.1659 3.8906C30.9915 4.01419 30.9786 4.07719 31.0287 4.5618C31.0831 5.0884 31.0807 5.09614 30.874 5.06651C30.7092 5.04286 30.6646 4.98405 30.6674 4.79326C30.6714 4.51227 30.5772 4.47779 30.4521 4.71434C30.262 5.07337 30.9686 5.44633 31.2315 5.12554C31.306 5.03468 31.3215 4.84411 31.2807 4.51493C31.242 4.20033 31.2547 4.01573 31.3183 3.97616C31.4584 3.88839 31.6863 4.1119 31.6249 4.27683C31.5829 4.38913 31.6041 4.38493 31.73 4.25693C32.0141 3.96798 31.5145 3.64366 31.1659 3.8906ZM7.78374 4.33431C7.27801 4.61176 7.20261 5.27941 7.63534 5.64751C8.44289 6.33506 9.43162 5.21088 8.68439 4.45479C8.40268 4.17005 8.14566 4.13556 7.78374 4.33431ZM8.50955 4.63166C8.82798 4.95377 8.85464 5.36077 8.57075 5.56195C7.95246 6.00013 7.18294 5.08929 7.71599 4.55008C7.95968 4.30358 8.21057 4.32922 8.50955 4.63166ZM32.3396 4.52068C32.2541 4.60712 32.2683 4.74551 32.357 4.69002C32.3986 4.66393 32.4976 4.715 32.5767 4.80365C32.7343 4.97985 32.2052 5.724 31.8198 5.86836C31.661 5.92783 31.6647 5.94154 31.8782 6.08303C32.0246 6.18008 32.1064 6.19733 32.1064 6.13123C32.1064 5.82658 32.912 5.0705 33.0763 5.22083C33.1657 5.30263 33.2177 5.4041 33.1919 5.44611C33.1661 5.48833 33.1845 5.52282 33.2326 5.52282C33.4555 5.52282 33.3974 5.32274 33.0977 5.05988C32.9168 4.90093 32.6984 4.70152 32.6123 4.6164C32.4373 4.44308 32.4215 4.43755 32.3396 4.52068ZM5.88693 5.97183C5.34383 6.52121 5.71559 7.37987 6.49647 7.37987C6.74037 7.37987 7.27889 6.83425 7.27889 6.58709C7.27889 5.81486 6.41823 5.43439 5.88693 5.97183ZM20.0003 5.90197C19.6382 6.10934 19.2595 6.66513 19.257 6.99299C19.2557 7.16565 19.197 7.18444 18.5343 7.22534C14.5256 7.47228 10.0764 12.286 10.0764 16.376V17.1957H20.3483H30.6202V16.376C30.6202 12.5692 27.0886 8.40766 22.9407 7.32681C22.3611 7.17582 22.3303 7.15459 22.2855 6.87537C22.131 5.91192 20.8988 5.38708 20.0003 5.90197ZM33.7674 5.88406C33.7674 6.01781 33.0206 6.80109 32.8361 6.86078C32.7778 6.87979 32.8577 7.0361 33.0269 7.23285C33.2509 7.49373 33.3604 7.55894 33.4992 7.51451C33.7202 7.44354 33.7424 7.29144 33.5235 7.34936C33.212 7.43182 32.9887 7.03963 33.233 6.83956C33.4564 6.65673 33.6799 6.73875 33.6799 7.0036C33.6799 7.11148 33.7044 7.11568 33.8111 7.02615C33.9503 6.9092 33.9957 6.71686 33.8646 6.79888C33.6458 6.93573 33.5711 6.57427 33.7733 6.3565L33.9796 6.13432L34.1288 6.33462C34.211 6.44471 34.2593 6.56586 34.2362 6.60367C34.1671 6.71686 34.2633 6.68127 34.3664 6.55547C34.4398 6.46594 34.3813 6.35871 34.1149 6.09541C33.9005 5.88362 33.7674 5.8027 33.7674 5.88406ZM6.78999 6.07551C7.1318 6.38458 7.16699 6.70536 6.88943 6.98591C6.61209 7.26668 6.29496 7.23109 5.98943 6.88532C5.45267 6.27758 6.18919 5.53255 6.78999 6.07551ZM21.1939 6.81878C21.5027 7.10153 21.3947 7.20301 20.7854 7.20301C20.1833 7.20301 20.0983 7.12873 20.3618 6.83403C20.5421 6.63263 20.9816 6.62445 21.1939 6.81878ZM34.9038 7.14796C34.9038 7.28171 34.0312 7.99889 33.8686 7.99889C33.7158 7.99889 33.7468 8.12955 33.9422 8.3084C34.0836 8.43795 34.117 8.44347 34.117 8.33758C34.117 8.26551 34.2154 8.11318 34.3356 7.99889C34.5128 7.83043 34.5541 7.81849 34.5541 7.9361C34.5541 8.13154 34.8717 8.29159 35.1292 8.22616C35.4609 8.14192 35.4933 7.79373 35.2081 7.37722C34.9464 6.99542 34.9038 6.96336 34.9038 7.14796ZM4.49148 7.60007C4.33652 7.81849 4.26484 7.97568 4.33215 7.94937C4.47989 7.89211 5.46753 8.68312 5.39563 8.80074C5.36787 8.84606 5.37749 8.8832 5.41682 8.8832C5.50774 8.8832 5.72979 8.53014 5.6404 8.52749C5.29356 8.51732 5.0761 7.91046 5.41945 7.91046C5.5272 7.91046 5.53156 7.8857 5.44305 7.77781C5.32897 7.63875 5.13686 7.59012 5.21663 7.72055C5.36831 7.96904 5.03436 8.10368 4.79133 7.89211L4.54459 7.67744L4.77231 7.49616C4.9736 7.33588 5.00048 7.20301 4.83132 7.20301C4.79942 7.20301 4.64643 7.38164 4.49148 7.60007ZM35.2004 7.60824C35.3265 7.94074 35.045 8.16713 34.7642 7.95932C34.604 7.84082 34.604 7.83374 34.7655 7.65312C34.9626 7.43293 35.1274 7.41591 35.2004 7.60824ZM2.92337 9.25903C-4.09892 21.0834 2.11189 36.1993 15.3408 39.4806C16.6032 39.7936 18.3914 40.0299 19.2245 39.9939L19.8489 39.9667L19.1989 39.0663L18.5487 38.1656L18.0498 38.1079C4.95874 36.592 -2.40318 21.761 4.33609 10.4809C4.61015 10.0224 4.80423 9.62071 4.76707 9.58844C4.43684 9.30059 3.44593 8.52948 3.4068 8.52948C3.37927 8.52948 3.16181 8.85777 2.92337 9.25903ZM36.0147 9.29131C35.283 9.76353 35.252 9.79625 35.3665 9.97643C42.2494 20.7991 35.9878 35.3519 23.365 37.8702L22.0987 38.1229L21.4271 39.0448L20.7557 39.9667L21.0715 39.9952C21.572 40.0403 23.5369 39.7582 24.6564 39.4806C37.8186 36.2159 44.0592 21.1939 37.1562 9.39168C36.9643 9.06338 36.8017 8.79499 36.7952 8.79521C36.7886 8.79543 36.4374 9.01872 36.0147 9.29131ZM15.1467 9.53759C15.1467 9.55704 15.0049 9.78586 14.8314 10.0461C13.7727 11.6343 13.138 13.7741 13.1365 15.7587L13.1361 16.4883H12.0416H10.9473L10.9999 16.2451C11.4346 14.243 11.9911 12.9424 12.984 11.6086C13.6366 10.7321 15.1467 9.28578 15.1467 9.53759ZM9.11472 18.4377C9.11472 18.6997 9.1722 18.8536 9.32934 19.0125L9.54396 19.2296H20.3046H31.0652L31.2798 19.0125C31.4369 18.8536 31.4944 18.6997 31.4944 18.4377V18.08H20.3046H9.11472V18.4377ZM9.37698 19.9963C9.37698 20.3487 9.87725 22.0218 10.3111 23.1206C11.8486 27.014 14.8205 31.9677 19.7401 38.837C20.3529 39.6928 20.2727 39.6656 20.6516 39.1452C26.6609 30.8955 30.6827 23.6885 31.1911 20.2603L31.252 19.8486H28.4122H25.5725L25.4593 20.2687C24.0462 25.5151 16.6829 25.5785 15.192 20.3571L15.0469 19.8486H12.212C9.62285 19.8486 9.37698 19.8615 9.37698 19.9963Z" fill="#2A85FF"/>
<path d="M51.2642 29V14.4545H57.0881C58.1581 14.4545 59.0507 14.6132 59.7656 14.9304C60.4806 15.2476 61.018 15.688 61.3778 16.2514C61.7377 16.8101 61.9176 17.4541 61.9176 18.1832C61.9176 18.7514 61.804 19.2509 61.5767 19.6818C61.3494 20.108 61.0369 20.4583 60.6392 20.733C60.2462 21.0028 59.7964 21.1946 59.2898 21.3082V21.4503C59.8438 21.474 60.3622 21.6302 60.8452 21.919C61.3329 22.2079 61.7282 22.6127 62.0312 23.1335C62.3343 23.6496 62.4858 24.2652 62.4858 24.9801C62.4858 25.7519 62.294 26.4408 61.9105 27.0469C61.5317 27.6482 60.9706 28.1241 60.2273 28.4744C59.4839 28.8248 58.5677 29 57.4787 29H51.2642ZM54.3395 26.4858H56.8466C57.7036 26.4858 58.3286 26.3224 58.7216 25.9957C59.1146 25.6643 59.3111 25.224 59.3111 24.6747C59.3111 24.2723 59.214 23.9171 59.0199 23.6094C58.8258 23.3016 58.5488 23.0601 58.1889 22.8849C57.8338 22.7098 57.41 22.6222 56.9176 22.6222H54.3395V26.4858ZM54.3395 20.5412H56.6193C57.0407 20.5412 57.4148 20.4678 57.7415 20.321C58.0729 20.1695 58.3333 19.9564 58.5227 19.6818C58.7169 19.4072 58.8139 19.0781 58.8139 18.6946C58.8139 18.169 58.6269 17.7453 58.2528 17.4233C57.8835 17.1013 57.358 16.9403 56.6761 16.9403H54.3395V20.5412ZM64.33 29V18.0909H67.3556V29H64.33ZM65.8499 16.6847C65.4001 16.6847 65.0142 16.5355 64.6923 16.2372C64.375 15.9342 64.2164 15.572 64.2164 15.1506C64.2164 14.7339 64.375 14.3764 64.6923 14.0781C65.0142 13.7751 65.4001 13.6236 65.8499 13.6236C66.2997 13.6236 66.6833 13.7751 67.0005 14.0781C67.3225 14.3764 67.4835 14.7339 67.4835 15.1506C67.4835 15.572 67.3225 15.9342 67.0005 16.2372C66.6833 16.5355 66.2997 16.6847 65.8499 16.6847ZM78.756 21.2017L75.9861 21.3722C75.9387 21.1354 75.8369 20.9223 75.6807 20.733C75.5244 20.5388 75.3185 20.3849 75.0628 20.2713C74.8118 20.1529 74.5112 20.0938 74.1608 20.0938C73.692 20.0938 73.2967 20.1932 72.9747 20.392C72.6527 20.5862 72.4918 20.8466 72.4918 21.1733C72.4918 21.4337 72.5959 21.6539 72.8043 21.8338C73.0126 22.0137 73.3701 22.1581 73.8767 22.267L75.8511 22.6648C76.9117 22.8826 77.7025 23.233 78.2233 23.7159C78.7441 24.1989 79.0045 24.8333 79.0045 25.6193C79.0045 26.3343 78.7938 26.9616 78.3724 27.5014C77.9558 28.0412 77.3829 28.4626 76.6537 28.7656C75.9293 29.0639 75.0936 29.2131 74.1466 29.2131C72.7025 29.2131 71.5519 28.9124 70.6949 28.3111C69.8426 27.705 69.3431 26.8812 69.1963 25.8395L72.1722 25.6832C72.2621 26.1236 72.4799 26.4598 72.8256 26.6918C73.1712 26.919 73.6139 27.0327 74.1537 27.0327C74.684 27.0327 75.1101 26.9309 75.4321 26.7273C75.7588 26.5189 75.9245 26.2514 75.9293 25.9247C75.9245 25.6501 75.8085 25.4252 75.5812 25.25C75.354 25.0701 75.0036 24.9328 74.5301 24.8381L72.6409 24.4616C71.5756 24.2486 70.7825 23.8793 70.2616 23.3537C69.7455 22.8281 69.4875 22.1581 69.4875 21.3438C69.4875 20.643 69.6769 20.0393 70.0557 19.5327C70.4392 19.026 70.9766 18.6354 71.6679 18.3608C72.3639 18.0862 73.1783 17.9489 74.1111 17.9489C75.4889 17.9489 76.5732 18.2401 77.3639 18.8224C78.1594 19.4048 78.6234 20.1979 78.756 21.2017ZM86.6123 18.0909V20.3636H80.0427V18.0909H86.6123ZM81.5342 15.4773H84.5597V25.6477C84.5597 25.9271 84.6023 26.1449 84.6876 26.3011C84.7728 26.4527 84.8912 26.5592 85.0427 26.6207C85.1989 26.6823 85.3789 26.7131 85.5825 26.7131C85.7245 26.7131 85.8665 26.7012 86.0086 26.6776C86.1506 26.6491 86.2595 26.6278 86.3353 26.6136L86.8112 28.8651C86.6596 28.9124 86.4466 28.9669 86.1719 29.0284C85.8973 29.0947 85.5635 29.1349 85.1705 29.1491C84.4414 29.1776 83.8022 29.0805 83.2529 28.858C82.7084 28.6354 82.2846 28.2898 81.9816 27.821C81.6786 27.3523 81.5294 26.7604 81.5342 26.0455V15.4773ZM88.4832 29V18.0909H91.4164V19.9943H91.53C91.7289 19.3172 92.0627 18.8059 92.5315 18.4602C93.0002 18.1098 93.54 17.9347 94.1508 17.9347C94.3023 17.9347 94.4656 17.9441 94.6408 17.9631C94.816 17.982 94.9699 18.008 95.1025 18.0412V20.7259C94.9604 20.6832 94.7639 20.6454 94.513 20.6122C94.262 20.5791 94.0324 20.5625 93.8241 20.5625C93.379 20.5625 92.9813 20.6596 92.6309 20.8537C92.2852 21.0431 92.0106 21.3082 91.807 21.6491C91.6082 21.9901 91.5087 22.383 91.5087 22.8281V29H88.4832ZM100.988 29.2131C99.8847 29.2131 98.9306 28.9787 98.1257 28.5099C97.3255 28.0365 96.7076 27.3783 96.272 26.5355C95.8364 25.688 95.6186 24.7055 95.6186 23.5881C95.6186 22.4612 95.8364 21.4763 96.272 20.6335C96.7076 19.786 97.3255 19.1278 98.1257 18.6591C98.9306 18.1856 99.8847 17.9489 100.988 17.9489C102.091 17.9489 103.043 18.1856 103.843 18.6591C104.648 19.1278 105.268 19.786 105.704 20.6335C106.139 21.4763 106.357 22.4612 106.357 23.5881C106.357 24.7055 106.139 25.688 105.704 26.5355C105.268 27.3783 104.648 28.0365 103.843 28.5099C103.043 28.9787 102.091 29.2131 100.988 29.2131ZM101.002 26.8693C101.504 26.8693 101.923 26.7273 102.259 26.4432C102.595 26.1544 102.849 25.7614 103.019 25.2642C103.194 24.767 103.282 24.2012 103.282 23.5668C103.282 22.9323 103.194 22.3665 103.019 21.8693C102.849 21.3722 102.595 20.9792 102.259 20.6903C101.923 20.4015 101.504 20.2571 101.002 20.2571C100.496 20.2571 100.069 20.4015 99.7237 20.6903C99.3828 20.9792 99.1248 21.3722 98.9496 21.8693C98.7791 22.3665 98.6939 22.9323 98.6939 23.5668C98.6939 24.2012 98.7791 24.767 98.9496 25.2642C99.1248 25.7614 99.3828 26.1544 99.7237 26.4432C100.069 26.7273 100.496 26.8693 101.002 26.8693ZM108.281 29V14.4545H114.02C115.123 14.4545 116.063 14.6652 116.84 15.0866C117.616 15.5033 118.208 16.0833 118.615 16.8267C119.027 17.5653 119.233 18.4176 119.233 19.3835C119.233 20.3494 119.025 21.2017 118.608 21.9403C118.191 22.679 117.588 23.2543 116.797 23.6662C116.011 24.0781 115.059 24.2841 113.942 24.2841H110.284V21.8196H113.445C114.037 21.8196 114.524 21.7178 114.908 21.5142C115.296 21.3059 115.585 21.0194 115.774 20.6548C115.968 20.2855 116.065 19.8617 116.065 19.3835C116.065 18.9006 115.968 18.4792 115.774 18.1193C115.585 17.7547 115.296 17.473 114.908 17.2741C114.52 17.0705 114.027 16.9688 113.431 16.9688H111.357V29H108.281ZM128.07 24.3551V18.0909H131.095V29H128.19V27.0185H128.077C127.83 27.6577 127.421 28.1714 126.848 28.5597C126.28 28.9479 125.586 29.142 124.767 29.142C124.038 29.142 123.396 28.9763 122.842 28.6449C122.288 28.3134 121.855 27.8423 121.543 27.2315C121.235 26.6207 121.079 25.8892 121.074 25.0369V18.0909H124.099V24.4972C124.104 25.1411 124.277 25.6501 124.618 26.0241C124.959 26.3982 125.416 26.5852 125.989 26.5852C126.353 26.5852 126.694 26.5024 127.011 26.3366C127.329 26.1662 127.584 25.9152 127.778 25.5838C127.977 25.2524 128.074 24.8428 128.07 24.3551ZM136.441 14.4545V29H133.415V14.4545H136.441ZM147.841 21.2017L145.071 21.3722C145.024 21.1354 144.922 20.9223 144.766 20.733C144.61 20.5388 144.404 20.3849 144.148 20.2713C143.897 20.1529 143.596 20.0938 143.246 20.0938C142.777 20.0938 142.382 20.1932 142.06 20.392C141.738 20.5862 141.577 20.8466 141.577 21.1733C141.577 21.4337 141.681 21.6539 141.889 21.8338C142.098 22.0137 142.455 22.1581 142.962 22.267L144.936 22.6648C145.997 22.8826 146.788 23.233 147.308 23.7159C147.829 24.1989 148.09 24.8333 148.09 25.6193C148.09 26.3343 147.879 26.9616 147.458 27.5014C147.041 28.0412 146.468 28.4626 145.739 28.7656C145.014 29.0639 144.179 29.2131 143.232 29.2131C141.788 29.2131 140.637 28.9124 139.78 28.3111C138.928 27.705 138.428 26.8812 138.281 25.8395L141.257 25.6832C141.347 26.1236 141.565 26.4598 141.911 26.6918C142.256 26.919 142.699 27.0327 143.239 27.0327C143.769 27.0327 144.195 26.9309 144.517 26.7273C144.844 26.5189 145.01 26.2514 145.014 25.9247C145.01 25.6501 144.894 25.4252 144.666 25.25C144.439 25.0701 144.089 24.9328 143.615 24.8381L141.726 24.4616C140.661 24.2486 139.868 23.8793 139.347 23.3537C138.831 22.8281 138.573 22.1581 138.573 21.3438C138.573 20.643 138.762 20.0393 139.141 19.5327C139.524 19.026 140.062 18.6354 140.753 18.3608C141.449 18.0862 142.263 17.9489 143.196 17.9489C144.574 17.9489 145.658 18.2401 146.449 18.8224C147.245 19.4048 147.709 20.1979 147.841 21.2017ZM154.866 29.2131C153.744 29.2131 152.778 28.9858 151.969 28.5312C151.164 28.072 150.544 27.4233 150.108 26.5852C149.672 25.7424 149.455 24.7457 149.455 23.5952C149.455 22.473 149.672 21.4882 150.108 20.6406C150.544 19.7931 151.157 19.1326 151.947 18.6591C152.743 18.1856 153.676 17.9489 154.746 17.9489C155.465 17.9489 156.135 18.0649 156.756 18.2969C157.381 18.5241 157.925 18.8674 158.389 19.3267C158.858 19.786 159.223 20.3636 159.483 21.0597C159.743 21.7509 159.874 22.5606 159.874 23.4886V24.3196H150.662V22.4446H157.026C157.026 22.009 156.931 21.6231 156.741 21.2869C156.552 20.9508 156.289 20.688 155.953 20.4986C155.622 20.3045 155.236 20.2074 154.795 20.2074C154.336 20.2074 153.929 20.3139 153.574 20.527C153.223 20.7353 152.949 21.017 152.75 21.3722C152.551 21.7225 152.449 22.1132 152.445 22.544V24.3267C152.445 24.8665 152.544 25.3329 152.743 25.7259C152.946 26.1188 153.233 26.4219 153.602 26.6349C153.972 26.848 154.41 26.9545 154.916 26.9545C155.252 26.9545 155.56 26.9072 155.839 26.8125C156.119 26.7178 156.358 26.5758 156.557 26.3864C156.756 26.197 156.907 25.965 157.011 25.6903L159.81 25.875C159.668 26.5473 159.376 27.1345 158.936 27.6364C158.5 28.1335 157.937 28.5218 157.246 28.8011C156.559 29.0758 155.766 29.2131 154.866 29.2131Z" fill="#2A85FF"/>
</svg>
