<svg width="18" height="16" viewBox="0 0 18 16" fill="none" xmlns="http://www.w3.org/2000/svg">
<path fill-rule="evenodd" clip-rule="evenodd" d="M9.01139 0.5C9.86139 0.5 10.6222 0.940833 11.0439 1.67917L17.0322 12.1492C17.4514 12.8817 17.4489 13.7558 17.0247 14.4867C16.6006 15.2183 15.8431 15.655 14.9989 15.655H3.01306C2.16806 15.655 1.41056 15.2183 0.986393 14.4867C0.562226 13.7558 0.559726 12.8817 0.978893 12.1492L6.97889 1.6775C7.40056 0.94 8.15973 0.5 9.01056 0.5H9.01139ZM9.01056 1.75C8.61389 1.75 8.26056 1.955 8.06223 2.29917L2.06389 12.77C1.86889 13.1117 1.87056 13.5192 2.06806 13.86C2.26556 14.2008 2.61889 14.405 3.01306 14.405H14.9989C15.3922 14.405 15.7456 14.2008 15.9431 13.86C16.1414 13.5192 16.1431 13.1117 15.9464 12.77L9.95889 2.29917C9.76139 1.955 9.40806 1.75 9.01056 1.75ZM9.00489 10.9158C9.46573 10.9158 9.83823 11.2883 9.83823 11.7492C9.83823 12.21 9.46573 12.5825 9.00489 12.5825C8.54406 12.5825 8.16739 12.21 8.16739 11.7492C8.16739 11.2883 8.53656 10.9158 8.99656 10.9158H9.00489ZM9.00323 5.97C9.34823 5.97 9.62823 6.25 9.62823 6.595V9.17833C9.62823 9.52333 9.34823 9.80333 9.00323 9.80333C8.65823 9.80333 8.37823 9.52333 8.37823 9.17833V6.595C8.37823 6.25 8.65823 5.97 9.00323 5.97Z" fill="white"/>
</svg>
