<svg width="20" height="20" viewBox="0 0 20 20" fill="none" xmlns="http://www.w3.org/2000/svg">
<path d="M7.08333 6.57734C7.08333 5.08717 8.4084 3.74996 10.2083 3.74996C12.0083 3.74996 13.3333 5.08717 13.3333 6.57734C13.3333 7.60341 12.7212 8.53983 11.7419 9.04094C10.641 9.60424 9.16667 10.756 9.16667 12.5297V13.125C9.16667 13.7003 9.63304 14.1666 10.2083 14.1666C10.7836 14.1666 11.25 13.7003 11.25 13.125V12.5297C11.25 12.0023 11.7432 11.3805 12.6909 10.8956C14.2852 10.0798 15.4167 8.47279 15.4167 6.57734C15.4167 3.79388 13.0108 1.66663 10.2083 1.66663C7.40589 1.66663 5 3.79388 5 6.57734C5 7.15264 5.46637 7.61901 6.04167 7.61901C6.61696 7.61901 7.08333 7.15264 7.08333 6.57734Z" fill="white"/>
<path d="M10.2083 18.3333C10.7836 18.3333 11.25 17.8669 11.25 17.2916C11.25 16.7163 10.7836 16.25 10.2083 16.25C9.63304 16.25 9.16667 16.7163 9.16667 17.2916C9.16667 17.8669 9.63304 18.3333 10.2083 18.3333Z" fill="white"/>
</svg>
