<svg width="57" height="57" viewBox="0 0 57 57" fill="none" xmlns="http://www.w3.org/2000/svg">
<path d="M28.1902 4.702C15.2622 4.702 4.70218 15.2618 4.70218 28.19C4.70218 31.902 5.59816 35.4221 7.1343 38.5579C7.32626 39.0061 7.58251 39.39 7.77448 39.8377C10.3343 44.382 14.4303 47.9659 19.2305 49.9497C19.3586 50.0136 19.4225 50.0136 19.5506 50.0779C22.2386 51.102 25.1185 51.7417 28.1265 51.7417C41.0545 51.7417 51.6145 41.182 51.6145 28.2538C51.6145 15.3258 41.1185 4.70178 28.1905 4.70178L28.1902 4.702ZM28.1902 49.694C25.6304 49.694 23.1344 49.2458 20.8942 48.4141L24.5424 43.7422C25.1826 42.9101 25.8223 42.1422 26.5263 41.4382L27.3584 40.5422C28.1906 39.6463 29.4704 39.198 30.6866 39.3905C32.4147 39.7105 34.2067 39.1347 35.4227 37.7266L43.6785 26.9748L43.1026 26.4627L34.3981 36.0618L34.1423 35.806L42.2062 25.8221L41.8861 25.5663L33.2459 35.0382L32.99 34.7824L41.0539 24.7985L40.7338 24.5427L32.158 34.078L31.9022 33.8222L39.966 23.8384L39.646 23.5825L31.0062 33.054L30.7504 32.7982L38.8143 22.8143L38.4942 22.5585L29.8539 32.0942L29.5981 31.8384L37.662 21.8546L37.3419 21.5988L28.7022 31.1345L28.4463 30.8787L36.5102 20.8944L35.8701 20.3823L26.5263 30.1104C25.3102 31.5184 25.0544 33.4385 25.6303 35.0385C26.0142 36.1903 25.7584 37.5345 24.9901 38.4943L24.2222 39.4541C23.5821 40.2863 22.9424 41.0541 22.2384 41.7581L17.4384 46.8139C14.6222 45.2139 12.2545 42.9737 10.3981 40.2858L14.5579 34.9099C15.1981 34.0778 15.8378 33.3099 16.5418 32.6059L17.6936 31.3898C18.3976 30.6219 19.3574 30.1737 20.3816 30.1737C22.8137 30.1737 25.6936 28.6376 27.9977 26.0139C31.3258 22.1099 32.0298 17.3099 29.5977 15.1978C27.1656 13.0858 22.4298 14.4938 19.1017 18.3978C16.7977 21.0219 15.7736 24.1576 16.0937 26.5259C16.2218 27.55 15.9017 28.5741 15.3258 29.342L14.3017 30.6862C13.6615 31.5184 13.0218 32.2862 12.3178 32.9902L8.54193 36.9581C7.32582 34.2701 6.68616 31.326 6.68616 28.1902C6.68616 16.3503 16.35 6.68626 28.1902 6.68626C40.0303 6.68626 49.6942 16.3501 49.6942 28.1902C49.6942 40.0303 40.0303 49.6942 28.1902 49.6942L28.1902 49.694Z" fill="#2A85FF"/>
<path d="M28.1902 56.2221C12.7662 56.2221 0.222168 43.6141 0.222168 28.1901C0.222168 12.766 12.7662 0.222046 28.1902 0.222046C43.6142 0.222046 56.2222 12.766 56.2222 28.1901C56.2222 43.6141 43.6142 56.2221 28.1902 56.2221ZM28.1902 3.16605C14.4302 3.16605 3.16617 14.366 3.16617 28.1901C3.16617 42.0141 14.4304 53.2141 28.1902 53.2141C41.9499 53.2141 53.2142 41.9498 53.2142 28.1901C53.2142 14.4303 41.9499 3.16605 28.1902 3.16605Z" fill="#2A85FF"/>
</svg>
