<svg width="15" height="17" viewBox="0 0 15 17" fill="none" xmlns="http://www.w3.org/2000/svg">
<path fill-rule="evenodd" clip-rule="evenodd" d="M9.6455 0.25C9.68136 0.25 9.71652 0.253026 9.75074 0.258836L9.86333 0.2595C10.0333 0.2595 10.1958 0.328667 10.3142 0.451167L14.5358 4.84867C14.6467 4.9645 14.7092 5.12033 14.7092 5.28117V12.9395C14.7225 15.0303 13.0925 16.7295 10.9983 16.8045H4.215C2.18148 16.7608 0.550586 15.1175 0.500305 13.1047L0.5 3.992C0.549167 1.9245 2.25583 0.2595 4.3075 0.2595L9.54026 0.258836C9.57448 0.253026 9.60964 0.25 9.6455 0.25ZM9.02 1.50917L4.31 1.5095C2.92917 1.5095 1.7825 2.62783 1.75 4.007V12.9395C1.72 14.357 2.83667 15.5237 4.24083 15.5545H10.9767C12.3675 15.5045 13.4683 14.357 13.4592 12.9437L13.4592 6.06917L11.7855 6.07C10.2597 6.06583 9.0205 4.8225 9.0205 3.29917L9.02 1.50917ZM7.28367 6.21575C7.45617 6.21575 7.61242 6.28575 7.72554 6.39888L7.72642 6.39942L9.68142 8.36275C9.92475 8.60775 9.92392 9.00275 9.67975 9.24608C9.43475 9.48942 9.03892 9.48942 8.79558 9.24442L7.90833 8.35333L7.90867 11.8749C7.90867 12.2199 7.62867 12.4999 7.28367 12.4999C6.93867 12.4999 6.65867 12.2199 6.65867 11.8749L6.65833 8.35333L5.77225 9.24442C5.65058 9.36775 5.48975 9.42858 5.32975 9.42858C5.17058 9.42858 5.01058 9.36775 4.88892 9.24608C4.64475 9.00275 4.64308 8.60775 4.88725 8.36275L6.84058 6.39942L6.86846 6.37372C6.88051 6.36299 6.89299 6.35273 6.90585 6.34295L6.84058 6.39942C6.86383 6.37609 6.88884 6.35508 6.91529 6.33636C7.0182 6.2605 7.14574 6.21575 7.28367 6.21575ZM10.27 2.21L10.2705 3.29917C10.2705 4.13583 10.9505 4.8175 11.7872 4.82L12.7742 4.81917L10.27 2.21Z" fill="white"/>
</svg>
