<svg width="20" height="20" viewBox="0 0 20 20" fill="none" xmlns="http://www.w3.org/2000/svg">
<path fill-rule="evenodd" clip-rule="evenodd" d="M9.2058 1.03535C9.05513 1.1028 8.99622 1.20388 8.99622 1.39529C8.99622 1.80019 9.57539 1.87073 9.70246 1.48125C9.80415 1.16966 9.50537 0.901347 9.2058 1.03535ZM10.0586 1.31978C10.0915 1.82109 10.6067 1.94524 10.6101 1.45269C10.6106 1.37778 10.6264 1.24935 10.6452 1.16727C10.6779 1.02521 10.6748 1.01804 10.5805 1.01804C10.4986 1.01804 10.4896 1.02799 10.5287 1.07564C10.6319 1.20139 10.5296 1.6257 10.3849 1.67136C10.1916 1.73234 10.0837 1.46433 10.1736 1.14708C10.207 1.02968 10.2025 1.01804 10.1245 1.01804C10.0422 1.01804 10.0395 1.03008 10.0586 1.31978ZM9.51225 1.13315C9.63292 1.23204 9.64295 1.51437 9.52867 1.59894C9.32991 1.74597 9.11423 1.61774 9.11423 1.35241C9.11423 1.08808 9.31929 0.975165 9.51225 1.13315ZM11.0125 1.32376C11.0068 1.47876 10.9778 1.62729 10.9427 1.68151C10.8848 1.77085 10.8866 1.77413 10.9928 1.77413C11.0976 1.77413 11.1022 1.76637 11.088 1.61495C11.0685 1.40902 11.1344 1.40842 11.2379 1.61366C11.3067 1.75015 11.4164 1.85372 11.4919 1.85372C11.5043 1.85372 11.4599 1.77761 11.3934 1.68469C11.2731 1.51666 11.2729 1.51537 11.3538 1.46095C11.5442 1.33311 11.4419 1.13394 11.1599 1.0834L11.0222 1.05873L11.0125 1.32376ZM8.57312 1.12409C8.54588 1.13514 8.53241 1.15852 8.54313 1.17603C8.55375 1.19353 8.54224 1.26675 8.51746 1.33868L8.47241 1.46941L8.38262 1.3555C8.33325 1.29282 8.30168 1.22706 8.3124 1.20935C8.33473 1.17284 8.24356 1.16647 8.16045 1.19871C8.12072 1.21413 8.15445 1.27034 8.27965 1.39688C8.43248 1.55158 8.45225 1.59108 8.43809 1.71364C8.42304 1.84436 8.42924 1.85372 8.53201 1.85372C8.5926 1.85372 8.64216 1.83581 8.64216 1.81392C8.64216 1.79204 8.62584 1.77413 8.60597 1.77413C8.47782 1.77413 8.56506 1.26934 8.71435 1.14737C8.77975 1.09395 8.68514 1.07833 8.57312 1.12409ZM11.2913 1.19642C11.3759 1.28198 11.3288 1.41598 11.2143 1.41598C11.1183 1.41598 11.0926 1.33689 11.1444 1.2004C11.1742 1.12181 11.2163 1.12061 11.2913 1.19642ZM12.2837 1.34067C12.3199 1.39997 12.1844 1.86148 12.1134 1.92067C12.0537 1.97041 12.3695 2.09248 12.5578 2.09248C12.8079 2.09248 12.955 1.67584 12.7674 1.49895C12.6408 1.37977 12.2242 1.24338 12.2837 1.34067ZM7.21611 1.44792C7.06259 1.50393 6.95057 1.568 6.95057 1.59973C6.95057 1.66091 7.01529 1.67524 7.03584 1.61863C7.04302 1.59874 7.08236 1.57635 7.12317 1.56889C7.22034 1.55108 7.40474 2.05328 7.3302 2.13277C7.29509 2.17018 7.30699 2.17455 7.3833 2.15217C7.49473 2.11944 7.58148 2.05269 7.51244 2.05269C7.48824 2.05269 7.42943 1.9342 7.38173 1.78935C7.28997 1.51029 7.3119 1.4327 7.47182 1.4714C7.5386 1.48761 7.57243 1.39698 7.51116 1.36594C7.49493 1.35778 7.36216 1.39459 7.21611 1.44792ZM12.7072 1.54551C12.8659 1.73563 12.694 2.03398 12.4452 2.00026C12.2364 1.9719 12.2292 1.915 12.3828 1.50632C12.4279 1.38634 12.5907 1.40603 12.7072 1.54551ZM6.47132 2.0889C6.46444 2.30985 6.46768 2.48933 6.4785 2.48773C6.53928 2.47878 6.64766 2.416 6.60635 2.41362C6.50574 2.40795 6.55325 2.21594 6.67038 2.15466C6.78368 2.09546 6.96208 2.18699 6.88507 2.26479C6.83295 2.31761 6.97663 2.29006 7.05128 2.23305C7.12347 2.17774 7.12367 2.17456 7.05531 2.17336C7.01558 2.17267 6.87081 2.06293 6.73352 1.92962L6.48391 1.68718L6.47132 2.0889ZM13.2074 1.84576C13.0436 2.0114 13.0418 2.21156 13.2025 2.37412C13.5367 2.71217 14.0429 2.24748 13.7268 1.89271C13.562 1.70787 13.3616 1.68976 13.2074 1.84576ZM13.6383 1.89351C13.8008 2.05796 13.671 2.41153 13.4485 2.41023C13.1759 2.40864 13.0884 2.07209 13.3139 1.89261C13.4397 1.79253 13.5387 1.79283 13.6383 1.89351ZM6.71454 2.05418C6.71454 2.0702 6.67913 2.09258 6.63586 2.10402C6.56987 2.12143 6.55718 2.10521 6.55718 2.00304C6.55718 1.88366 6.55885 1.88267 6.63586 1.9532C6.67913 1.9928 6.71454 2.03826 6.71454 2.05418ZM8.8782 2.15595C3.63319 2.92696 0.673394 8.67122 3.05136 13.4643C4.18767 15.7545 6.26253 17.2682 8.86836 17.7079C9.26038 17.7741 8.86748 17.4376 8.45658 17.3554C3.76251 16.4147 1.13347 11.074 3.20694 6.69137C5.58461 1.66609 12.3593 0.835488 15.7849 5.14925C19.2829 9.55425 17.1234 15.9095 11.6453 17.332C11.4548 17.3814 11.2429 17.6519 11.3945 17.6519C11.5325 17.6519 12.3743 17.4163 12.7228 17.2801C17.7874 15.3016 19.3735 8.91794 15.8293 4.77857C14.1198 2.78211 11.4559 1.77701 8.8782 2.15595ZM14.1792 2.25484C13.9917 2.36527 13.9486 2.63079 14.0906 2.80141C14.3299 3.08912 14.7398 2.92984 14.7398 2.54902C14.7398 2.31194 14.392 2.12949 14.1792 2.25484ZM5.17843 2.42973C5.06052 2.50574 4.98626 2.56842 5.0136 2.56901C5.06848 2.57011 5.35074 2.99451 5.35074 3.07589C5.35074 3.14334 5.37897 3.14055 5.4961 3.06136C5.84071 2.82827 5.90415 2.61955 5.69476 2.40775C5.54527 2.25663 5.44014 2.26111 5.17843 2.42973ZM14.5411 2.33015C14.7565 2.44685 14.5923 2.88836 14.3337 2.88836C14.2164 2.88836 14.0978 2.74689 14.1017 2.61159C14.1085 2.37134 14.3414 2.22211 14.5411 2.33015ZM5.61608 2.48734C5.74531 2.61806 5.75938 2.71028 5.66998 2.83941C5.52846 3.04376 5.46827 3.03102 5.2994 2.76092L5.14332 2.51111L5.27 2.44277C5.44437 2.34865 5.484 2.35373 5.61608 2.48734ZM15.0247 2.75077C14.9462 2.80638 14.9404 2.83474 14.9629 3.05281C14.9874 3.28978 14.9863 3.29326 14.8933 3.27993C14.8191 3.26929 14.7991 3.24282 14.8003 3.15697C14.8021 3.03052 14.7597 3.015 14.7035 3.12145C14.6179 3.28302 14.9359 3.45085 15.0542 3.30649C15.0877 3.26561 15.0947 3.17985 15.0763 3.03172C15.0589 2.89015 15.0646 2.80708 15.0932 2.78927C15.1563 2.74978 15.2588 2.85036 15.2312 2.92457C15.2123 2.97511 15.2219 2.97322 15.2785 2.91562C15.4064 2.78559 15.1815 2.63965 15.0247 2.75077ZM4.50268 2.95044C4.27511 3.07529 4.24118 3.37574 4.4359 3.54138C4.7993 3.85078 5.24423 3.3449 4.90798 3.00466C4.78121 2.87652 4.66555 2.861 4.50268 2.95044ZM4.8293 3.08425C4.97259 3.22919 4.98459 3.41235 4.85684 3.50288C4.57861 3.70006 4.23232 3.29018 4.4722 3.04754C4.58185 2.93661 4.69476 2.94815 4.8293 3.08425ZM15.5528 3.0343C15.5143 3.0732 15.5207 3.13548 15.5607 3.11051C15.5794 3.09877 15.6239 3.12175 15.6595 3.16164C15.7304 3.24093 15.4923 3.5758 15.3189 3.64076C15.2474 3.66753 15.2491 3.67369 15.3452 3.73736C15.4111 3.78104 15.4479 3.7888 15.4479 3.75905C15.4479 3.62196 15.8104 3.28172 15.8843 3.34937C15.9246 3.38618 15.948 3.43185 15.9364 3.45075C15.9248 3.46975 15.933 3.48527 15.9547 3.48527C16.055 3.48527 16.0288 3.39523 15.894 3.27695C15.8125 3.20542 15.7143 3.11568 15.6755 3.07738C15.5968 2.99938 15.5897 2.9969 15.5528 3.0343ZM3.64912 3.68732C3.40472 3.93454 3.57201 4.32094 3.92341 4.32094C4.03317 4.32094 4.2755 4.07541 4.2755 3.96419C4.2755 3.61669 3.8882 3.44547 3.64912 3.68732ZM10.0002 3.65589C9.83719 3.7492 9.66675 3.99931 9.66567 4.14684C9.66508 4.22454 9.63863 4.233 9.34044 4.2514C7.53653 4.36253 5.53436 6.52871 5.53436 8.36918V8.73807H10.1567H14.7791V8.36918C14.7791 6.65615 13.1899 4.78345 11.3233 4.29707C11.0625 4.22912 11.0486 4.21957 11.0285 4.09392C10.959 3.66036 10.4045 3.42418 10.0002 3.65589ZM16.1953 3.64783C16.1953 3.70802 15.8593 4.06049 15.7763 4.08735C15.75 4.09591 15.786 4.16624 15.8621 4.25478C15.9629 4.37218 16.0122 4.40153 16.0746 4.38153C16.1741 4.34959 16.1841 4.28115 16.0856 4.30721C15.9454 4.34432 15.8449 4.16783 15.9548 4.0778C16.0554 3.99553 16.156 4.03244 16.156 4.15162C16.156 4.20017 16.167 4.20206 16.215 4.16177C16.2776 4.10914 16.2981 4.02259 16.2391 4.0595C16.1406 4.12108 16.107 3.95842 16.198 3.86043L16.2908 3.76044L16.358 3.85058C16.395 3.90012 16.4167 3.95464 16.4063 3.97165C16.3752 4.02259 16.4185 4.00657 16.4649 3.94996C16.4979 3.90967 16.4716 3.86142 16.3517 3.74293C16.2552 3.64763 16.1953 3.61122 16.1953 3.64783ZM4.05549 3.73398C4.20931 3.87306 4.22514 4.01741 4.10024 4.14366C3.97544 4.27001 3.83273 4.25399 3.69524 4.09839C3.4537 3.82491 3.78513 3.48965 4.05549 3.73398ZM10.5372 4.06845C10.6762 4.19569 10.6276 4.24135 10.3534 4.24135C10.0825 4.24135 10.0442 4.20793 10.1628 4.07531C10.244 3.98468 10.4417 3.981 10.5372 4.06845ZM16.7067 4.21658C16.7067 4.27677 16.314 4.5995 16.2408 4.5995C16.1721 4.5995 16.1861 4.6583 16.274 4.73878C16.3376 4.79708 16.3527 4.79956 16.3527 4.75191C16.3527 4.71948 16.3969 4.65093 16.451 4.5995C16.5308 4.52369 16.5494 4.51832 16.5494 4.57125C16.5494 4.65919 16.6923 4.73122 16.8081 4.70177C16.9574 4.66387 16.972 4.50718 16.8436 4.31975C16.7259 4.14794 16.7067 4.13351 16.7067 4.21658ZM3.02117 4.42003C2.95144 4.51832 2.91918 4.58905 2.94947 4.57722C3.01595 4.55145 3.46039 4.90741 3.42803 4.96033C3.41554 4.98073 3.41987 4.99744 3.43757 4.99744C3.47848 4.99744 3.57841 4.83856 3.53818 4.83737C3.3821 4.83279 3.28425 4.55971 3.43875 4.55971C3.48724 4.55971 3.4892 4.54856 3.44937 4.50001C3.39803 4.43744 3.31159 4.41555 3.34748 4.47425C3.41574 4.58607 3.26546 4.64666 3.1561 4.55145L3.04506 4.45485L3.14754 4.37327C3.23812 4.30115 3.25022 4.24135 3.1741 4.24135C3.15974 4.24135 3.09089 4.32174 3.02117 4.42003ZM16.8402 4.42371C16.8969 4.57334 16.7703 4.67521 16.6439 4.58169C16.5718 4.52837 16.5718 4.52518 16.6445 4.44391C16.7332 4.34482 16.8073 4.33716 16.8402 4.42371ZM2.31552 5.16656C-0.844513 10.4875 1.95035 17.2897 7.90337 18.7663C8.47143 18.9071 9.27611 19.0135 9.65102 18.9973L9.932 18.985L9.63951 18.5798L9.34693 18.1745L9.1224 18.1486C3.23143 17.4664 -0.081429 10.7924 2.95124 5.71642C3.07457 5.51009 3.1619 5.32932 3.14518 5.3148C2.99658 5.18527 2.55067 4.83826 2.53306 4.83826C2.52067 4.83826 2.42281 4.986 2.31552 5.16656ZM17.2066 5.18109C16.8774 5.39359 16.8634 5.40831 16.9149 5.48939C20.0122 10.3596 17.1945 16.9084 11.5142 18.0416L10.9444 18.1553L10.6422 18.5702L10.34 18.985L10.4822 18.9979C10.7074 19.0181 11.5916 18.8912 12.0954 18.7663C18.0184 17.2972 20.8266 10.5373 17.7203 5.22625C17.634 5.07852 17.5608 4.95775 17.5578 4.95784C17.5549 4.95794 17.3968 5.05842 17.2066 5.18109ZM7.81604 5.29192C7.81604 5.30067 7.75221 5.40364 7.67412 5.52073C7.19772 6.23543 6.91212 7.19834 6.91143 8.09142L6.91123 8.41972H6.4187H5.92628L5.94998 8.31029C6.14559 7.40935 6.39599 6.82408 6.84278 6.22389C7.13645 5.82943 7.81604 5.1786 7.81604 5.29192ZM5.10162 9.29698C5.10162 9.41487 5.12749 9.48411 5.1982 9.55564L5.29478 9.65333H10.1371H14.9793L15.0759 9.55564C15.1466 9.48411 15.1725 9.41487 15.1725 9.29698V9.13601H10.1371H5.10162V9.29698ZM5.21964 9.99835C5.21964 10.1569 5.44476 10.9098 5.63998 11.4043C6.33186 13.1563 7.6692 15.3855 9.88302 18.4767C10.1588 18.8618 10.1227 18.8495 10.2932 18.6153C12.9974 14.903 14.8072 11.6598 15.036 10.1171L15.0634 9.93189H13.7855H12.5076L12.4567 10.1209C11.8208 12.4818 8.50733 12.5103 7.8364 10.1607L7.77109 9.93189H6.49542C5.33028 9.93189 5.21964 9.93766 5.21964 9.99835Z" fill="#2A85FF"/>
</svg>
